<?xml version="1.0" encoding="utf-8"?>
<!-- Generator: Adobe Illustrator 24.2.0, SVG Export Plug-In . SVG Version: 6.00 Build 0)  -->
<svg version="1.1" width='30px' id="Layer_1" xmlns="http://www.w3.org/2000/svg" xmlns:xlink="http://www.w3.org/1999/xlink" x="0px" y="0px"
	 viewBox="0 0 1000 1000" style="enable-background:new 0 0 1000 1000;" xml:space="preserve">
<style type="text/css">
	.st0{fill:#BB2026;}
	.st1{fill:url(#SVGID_1_);}
	.st2{fill:url(#SVGID_2_);}
	.st3{fill:url(#SVGID_3_);}
	.st4{fill:none;stroke:#231F20;stroke-width:0.25;}
	.st5{fill:url(#SVGID_4_);}
	.st6{fill:url(#SVGID_5_);}
	.st7{fill:url(#SVGID_6_);}
	.st8{fill:url(#SVGID_7_);}
	.st9{fill:url(#SVGID_8_);}
	.st10{fill:url(#SVGID_9_);}
	.st11{fill:url(#SVGID_10_);}
	.st12{fill:url(#SVGID_11_);}
	.st13{fill:url(#SVGID_12_);}
	.st14{fill:url(#SVGID_13_);}
	.st15{fill:#FFFFFF;stroke:#010101;stroke-width:0.25;}
	.st16{fill:url(#SVGID_14_);}
	.st17{fill:none;stroke:#E8E8E8;stroke-width:0.25;}
	.st18{fill:url(#SVGID_15_);}
	.st19{fill:url(#SVGID_16_);}
</style>
<g>
	<g>
		<g>
			<g>
				<path class="st0" d="M221.9,610.7v24.3H101c0,0-4.5-1.1-4.5,4.5c0,5.6,0,48.7,0,48.7s-0.6,4.6,4.6,4.6c5.2,0,120.6,0,120.6,0
					v22.2H96.6c0,0-24.2-2.1-24.2-24.2v-55c0,0-2.8-24.7,24.7-24.7L221.9,610.7z"/>
			</g>
			<g>
				<path class="st0" d="M441.4,652.1h109.8v22.7H436.8v13.4c0,0-0.6,4.6,4.7,4.6c5.3,0,124.4,0,124.4,0v22.2h-129
					c0,0-24.9-2.1-24.9-24.2v-55c0,0-2.9-24.7,25.5-24.7l128.7-0.3v21.9c0,0-114.9,0-124.7,0c0,0-4.8,0.4-4.8,4.8s0,4.4,0,4.4v10.3
					L441.4,652.1z"/>
			</g>
			<g>
				<polygon class="st0" points="240.3,609.9 264.4,609.9 264.4,652.6 366.7,652.6 366.7,610.3 391.9,610.3 391.9,715.9 
					367.5,715.9 367.5,675.1 264.4,675.1 264.4,715.2 240,715.2 				"/>
			</g>
			<g>
				<g>
					<path class="st0" d="M585.3,610.3h131.9h5.1c0,0,16.8,6.2,16.8,16.8c0,10.6,0,24.8,0,24.8s1.5,17.7-17.7,17.7
						c-19.1,0-20.9,0-20.9,0l43.7,46.4h-31.7L672,669.3h-61.6v46.3h-24.8L585.3,610.3z M610,651.5h102.4c0,0,5.3-0.7,5.3-5.3
						c0-4.6,0-7.1,0-7.1s1.1-5-5-5h-103L610,651.5z"/>
				</g>
			</g>
			<g>
				<polygon class="st0" points="744.4,609.9 781.6,609.9 837.7,659.1 893.8,609.9 927.7,609.9 851.5,679.5 851.5,715.2 
					823.5,715.2 823.5,679.1 				"/>
			</g>
		</g>
	</g>
	<g>
		<linearGradient id="SVGID_1_" gradientUnits="userSpaceOnUse" x1="371.3668" y1="417.6106" x2="314.5971" y2="381.9645">
			<stop  offset="0" style="stop-color:#E8E8E8"/>
			<stop  offset="1" style="stop-color:#4A5254"/>
		</linearGradient>
		<polygon class="st1" points="482.6,301.7 308.4,508.5 250.3,527.9 455.4,284.1 		"/>
		<linearGradient id="SVGID_2_" gradientUnits="userSpaceOnUse" x1="607.3376" y1="291.2827" x2="592.8154" y2="501.8544">
			<stop  offset="3.296700e-02" style="stop-color:#E8E8E8"/>
			<stop  offset="9.465676e-02" style="stop-color:#D7D8D8"/>
			<stop  offset="0.2977" style="stop-color:#A5A9A9"/>
			<stop  offset="0.4893" style="stop-color:#7E8384"/>
			<stop  offset="0.664" style="stop-color:#61686A"/>
			<stop  offset="0.8161" style="stop-color:#50585A"/>
			<stop  offset="0.9286" style="stop-color:#4A5254"/>
		</linearGradient>
		<polygon class="st2" points="482.6,301.7 656.9,508.5 715,527.9 509.9,284.1 		"/>
		<linearGradient id="SVGID_3_" gradientUnits="userSpaceOnUse" x1="482.6476" y1="303.433" x2="482.6476" y2="274.8304">
			<stop  offset="0" style="stop-color:#E8E8E8"/>
			<stop  offset="0.1204" style="stop-color:#CACBCC"/>
			<stop  offset="0.3244" style="stop-color:#9CA0A1"/>
			<stop  offset="0.5204" style="stop-color:#797E80"/>
			<stop  offset="0.7034" style="stop-color:#5F6668"/>
			<stop  offset="0.8684" style="stop-color:#4F5759"/>
			<stop  offset="1" style="stop-color:#4A5254"/>
		</linearGradient>
		<polygon class="st3" points="482.6,301.7 509.9,284.1 455.4,284.1 		"/>
		<linearGradient id="SVGID_4_" gradientUnits="userSpaceOnUse" x1="390.6403" y1="296.5564" x2="359.6158" y2="310.4184">
			<stop  offset="0" style="stop-color:#FFFFFF"/>
			<stop  offset="1" style="stop-color:#4A5254"/>
		</linearGradient>
		<polygon class="st5" points="355.7,326.1 383.5,285.8 355.8,307.8 		"/>
		<linearGradient id="SVGID_5_" gradientUnits="userSpaceOnUse" x1="292.4704" y1="425.5348" x2="153.1913" y2="193.1827">
			<stop  offset="0" style="stop-color:#4A5254"/>
			<stop  offset="0.3571" style="stop-color:#E8E8E8"/>
			<stop  offset="0.4247" style="stop-color:#DDDDDE"/>
			<stop  offset="0.5437" style="stop-color:#BFC1C2"/>
			<stop  offset="0.7003" style="stop-color:#8F9495"/>
			<stop  offset="0.8866" style="stop-color:#4D5557"/>
			<stop  offset="0.8956" style="stop-color:#4A5254"/>
		</linearGradient>
		<path class="st6" d="M328.6,468.9l-41.4,15c-197.6-29.9-184-93.7-184-93.7c-0.4-82.3,280.3-104.3,280.3-104.3l-27.7,22
			c0,0-229,33.1-222.4,82C140.2,438.6,328.6,468.9,328.6,468.9z"/>
		<linearGradient id="SVGID_6_" gradientUnits="userSpaceOnUse" x1="280.0174" y1="434.1158" x2="224.1321" y2="303.4195">
			<stop  offset="0" style="stop-color:#E8E8E8"/>
			<stop  offset="0.1204" style="stop-color:#CACBCC"/>
			<stop  offset="0.3244" style="stop-color:#9CA0A1"/>
			<stop  offset="0.5204" style="stop-color:#797E80"/>
			<stop  offset="0.7034" style="stop-color:#5F6668"/>
			<stop  offset="0.8684" style="stop-color:#4F5759"/>
			<stop  offset="1" style="stop-color:#4A5254"/>
		</linearGradient>
		<path class="st7" d="M355.9,307.8v18.3c0,0-191.9,14.3-191.9,62.7s152.3,60.7,152.3,60.7l12.3,19.4c0,0-195.4-23.8-195.4-79.2
			C133.2,334.2,355.9,307.8,355.9,307.8z"/>
		<linearGradient id="SVGID_7_" gradientUnits="userSpaceOnUse" x1="251.2728" y1="517.9025" x2="338.8426" y2="518.7843">
			<stop  offset="0" style="stop-color:#E8E8E8"/>
			<stop  offset="0.1204" style="stop-color:#CACBCC"/>
			<stop  offset="0.3244" style="stop-color:#9CA0A1"/>
			<stop  offset="0.5204" style="stop-color:#797E80"/>
			<stop  offset="0.7034" style="stop-color:#5F6668"/>
			<stop  offset="0.8684" style="stop-color:#4F5759"/>
			<stop  offset="1" style="stop-color:#4A5254"/>
		</linearGradient>
		<polygon class="st8" points="250.3,527.9 328.2,527.9 308.4,508.5 		"/>
		<linearGradient id="SVGID_8_" gradientUnits="userSpaceOnUse" x1="498.2711" y1="310.9328" x2="291.8777" y2="541.5314">
			<stop  offset="0" style="stop-color:#4A5254"/>
			<stop  offset="4.650231e-02" style="stop-color:#73797A"/>
			<stop  offset="9.365599e-02" style="stop-color:#959899"/>
			<stop  offset="0.142" style="stop-color:#AFB1B2"/>
			<stop  offset="0.1912" style="stop-color:#C2C3C3"/>
			<stop  offset="0.242" style="stop-color:#CDCECE"/>
			<stop  offset="0.2967" style="stop-color:#D1D1D1"/>
			<stop  offset="0.6321" style="stop-color:#898E8F"/>
			<stop  offset="0.8772" style="stop-color:#5C6364"/>
			<stop  offset="1" style="stop-color:#4A5254"/>
		</linearGradient>
		<polygon class="st9" points="482.6,301.7 482.6,339.6 328.1,527.8 308.4,508.5 		"/>
		
			<linearGradient id="SVGID_9_" gradientUnits="userSpaceOnUse" x1="778.9423" y1="310.9327" x2="572.5487" y2="541.5315" gradientTransform="matrix(-1 0 0 1 1246 0)">
			<stop  offset="0" style="stop-color:#000000"/>
			<stop  offset="2.137811e-02" style="stop-color:#202020"/>
			<stop  offset="5.811568e-02" style="stop-color:#515151"/>
			<stop  offset="9.587074e-02" style="stop-color:#7A7A7A"/>
			<stop  offset="0.134" style="stop-color:#9D9D9D"/>
			<stop  offset="0.1728" style="stop-color:#B7B7B7"/>
			<stop  offset="0.2122" style="stop-color:#CACACA"/>
			<stop  offset="0.2529" style="stop-color:#D5D5D5"/>
			<stop  offset="0.2967" style="stop-color:#D9D9D9"/>
			<stop  offset="0.3241" style="stop-color:#D3D3D3"/>
			<stop  offset="0.6497" style="stop-color:#898E8F"/>
			<stop  offset="0.8831" style="stop-color:#5C6364"/>
			<stop  offset="1" style="stop-color:#4A5254"/>
		</linearGradient>
		<polygon class="st10" points="482.7,301.7 482.7,339.6 637.2,527.8 657,508.5 		"/>
		
			<linearGradient id="SVGID_10_" gradientUnits="userSpaceOnUse" x1="531.9324" y1="517.9025" x2="619.509" y2="518.7844" gradientTransform="matrix(-1 0 0 1 1246 0)">
			<stop  offset="0" style="stop-color:#E8E8E8"/>
			<stop  offset="6.841228e-03" style="stop-color:#E4E4E4"/>
			<stop  offset="8.504514e-02" style="stop-color:#BBBEBE"/>
			<stop  offset="0.1681" style="stop-color:#989C9D"/>
			<stop  offset="0.2554" style="stop-color:#7C8183"/>
			<stop  offset="0.3485" style="stop-color:#666C6E"/>
			<stop  offset="0.45" style="stop-color:#565D5F"/>
			<stop  offset="0.5664" style="stop-color:#4D5557"/>
			<stop  offset="0.7308" style="stop-color:#4A5254"/>
		</linearGradient>
		<polygon class="st11" points="715.1,527.9 637.1,527.9 657,508.5 		"/>
		
			<linearGradient id="SVGID_11_" gradientUnits="userSpaceOnUse" x1="698.6274" y1="296.5565" x2="667.6033" y2="310.4184" gradientTransform="matrix(-1 0 0 1 1273.3789 0)">
			<stop  offset="0" style="stop-color:#FFFFFF"/>
			<stop  offset="1" style="stop-color:#4A5254"/>
		</linearGradient>
		<polygon class="st12" points="609.7,326.1 581.9,285.8 609.6,307.8 		"/>
		
			<linearGradient id="SVGID_12_" gradientUnits="userSpaceOnUse" x1="600.4578" y1="425.5348" x2="461.1786" y2="193.1826" gradientTransform="matrix(-1 0 0 1 1273.3789 0)">
			<stop  offset="0" style="stop-color:#4A5254"/>
			<stop  offset="0.3571" style="stop-color:#E8E8E8"/>
			<stop  offset="0.4247" style="stop-color:#DDDDDE"/>
			<stop  offset="0.5437" style="stop-color:#BFC1C2"/>
			<stop  offset="0.7003" style="stop-color:#8F9495"/>
			<stop  offset="0.8866" style="stop-color:#4D5557"/>
			<stop  offset="0.8956" style="stop-color:#4A5254"/>
		</linearGradient>
		<path class="st13" d="M636.8,468.9l41.4,15c197.6-29.9,184-93.7,184-93.7c0.4-82.3-280.3-104.3-280.3-104.3l27.7,22
			c0,0,229,33.1,222.4,82C825.2,438.6,636.8,468.9,636.8,468.9z"/>
		
			<linearGradient id="SVGID_13_" gradientUnits="userSpaceOnUse" x1="588.0023" y1="434.1164" x2="532.1163" y2="303.4186" gradientTransform="matrix(-1 0 0 1 1273.3789 0)">
			<stop  offset="0" style="stop-color:#E8E8E8"/>
			<stop  offset="9.619312e-02" style="stop-color:#C2C4C4"/>
			<stop  offset="0.2213" style="stop-color:#979B9C"/>
			<stop  offset="0.3428" style="stop-color:#767B7D"/>
			<stop  offset="0.4581" style="stop-color:#5E6566"/>
			<stop  offset="0.5646" style="stop-color:#4F5759"/>
			<stop  offset="0.6538" style="stop-color:#4A5254"/>
		</linearGradient>
		<path class="st14" d="M609.5,307.8v18.3c0,0,191.9,14.3,191.9,62.7s-152.3,60.7-152.3,60.7l-12.3,19.4c0,0,195.4-23.8,195.4-79.2
			C832.2,334.2,609.5,307.8,609.5,307.8z"/>
		<linearGradient id="SVGID_14_" gradientUnits="userSpaceOnUse" x1="564.8828" y1="473.5845" x2="552.9933" y2="480.1897">
			<stop  offset="0" style="stop-color:#E8E8E8"/>
			<stop  offset="6.396054e-02" style="stop-color:#D7D8D8"/>
			<stop  offset="0.2745" style="stop-color:#A5A9A9"/>
			<stop  offset="0.4731" style="stop-color:#7E8384"/>
			<stop  offset="0.6543" style="stop-color:#61686A"/>
			<stop  offset="0.8119" style="stop-color:#50585A"/>
			<stop  offset="0.9286" style="stop-color:#4A5254"/>
		</linearGradient>
		<polygon class="st16" points="544.3,459.4 570.9,495.8 548.3,476.6 		"/>
		<linearGradient id="SVGID_15_" gradientUnits="userSpaceOnUse" x1="449.2749" y1="472.2439" x2="445.3137" y2="430.6509">
			<stop  offset="0" style="stop-color:#E8E8E8"/>
			<stop  offset="0.1204" style="stop-color:#CACBCC"/>
			<stop  offset="0.3244" style="stop-color:#9CA0A1"/>
			<stop  offset="0.5204" style="stop-color:#797E80"/>
			<stop  offset="0.7034" style="stop-color:#5F6668"/>
			<stop  offset="0.8684" style="stop-color:#4F5759"/>
			<stop  offset="1" style="stop-color:#4A5254"/>
		</linearGradient>
		<path class="st18" d="M350.7,471.7l35.2-14.3c0,0,132,5.5,158.4,2l4,17.2C548.3,476.6,493,486.9,350.7,471.7z"/>
		<linearGradient id="SVGID_16_" gradientUnits="userSpaceOnUse" x1="458.5657" y1="430.3345" x2="460.5458" y2="477.8583">
			<stop  offset="0" style="stop-color:#E8E8E8"/>
			<stop  offset="6.396054e-02" style="stop-color:#D7D8D8"/>
			<stop  offset="0.2745" style="stop-color:#A5A9A9"/>
			<stop  offset="0.4731" style="stop-color:#7E8384"/>
			<stop  offset="0.6543" style="stop-color:#61686A"/>
			<stop  offset="0.8119" style="stop-color:#50585A"/>
			<stop  offset="0.9286" style="stop-color:#4A5254"/>
		</linearGradient>
		<path class="st19" d="M548.3,476.6l22.7,19.2c0,0-124.2,8.4-214-3.1l-6.3-21C350.7,471.7,472.8,483,548.3,476.6z"/>
	</g>
</g>
</svg>
